<svg xmlns="http://www.w3.org/2000/svg" xmlns:xlink="http://www.w3.org/1999/xlink" viewBox="0 0 933.26 435.92"><defs><style>.cls-1{fill:url(#Degradado_sin_nombre_131);}.cls-2{fill:url(#Degradado_sin_nombre_131-2);}.cls-3{fill:#e5e5e5;}</style><linearGradient id="Degradado_sin_nombre_131" x1="514.13" y1="228.5" x2="338.86" y2="532.08" gradientUnits="userSpaceOnUse"><stop offset="0" stop-color="#ff5702"/><stop offset="1" stop-color="#ff037b"/></linearGradient><linearGradient id="Degradado_sin_nombre_131-2" x1="531.56" y1="-87.29" x2="348.63" y2="229.56" xlink:href="#Degradado_sin_nombre_131"/></defs><title>Recurso 1</title><g id="Capa_2" data-name="Capa 2"><g id="Capa_1-2" data-name="Capa 1"><path class="cls-1" d="M681.81,325.31a49.2,49.2,0,0,1-31.19,11,53,53,0,0,1-9.91-.94v56H214.34V336.17c-1.56.1-3.14.16-4.74.16-15,0-27.7-5.22-37.3-15.23V435.92H682.75V326.13C682.44,325.85,682.12,325.59,681.81,325.31Z"/><path class="cls-2" d="M183.49,103.69c8.68-15.82,19-26.48,30.85-32V44.51H640.71V200.1l.6-.45c12.83-9.08,26.77-13.72,41.43-13.83V0H172.3V127.75A208.2,208.2,0,0,1,183.49,103.69Z"/><path class="cls-3" d="M120,180.74q5.27,4.89,15.81,4.9,10.79,0,17.32-5.9t6.53-15.94q0-8.28-5.77-12.8t-15.06-4.52q-10.3,0-17.2,5.9a18.54,18.54,0,0,0-6.9,14.68Q114.71,175.85,120,180.74Z"/><path class="cls-3" d="M931.38,273.74a5.8,5.8,0,0,0-5.15-3q-3.77,0-6.78,3.76-8.79,11.3-15.44,16.06t-16.94,4.77q-14.31,0-20.33-11.55,29.87-7.28,42.3-19.7a40.58,40.58,0,0,0,12.43-29.75q0-14.81-8.79-23.47t-23.34-8.66A50.82,50.82,0,0,0,860.09,211a59.61,59.61,0,0,0-20.21,23.72A72.6,72.6,0,0,0,832.6,267a79.44,79.44,0,0,0,.65,10.26,108.88,108.88,0,0,1-9.93,9.07,30,30,0,0,1-19.08,6.53q-13.31,0-19.45-10.54t-6.15-36.65q0-7,.5-19.58h30.62q28.36,0,28.36-17.32,0-4.77-1.76-6.53t-5.77-1.76H802.48q32.63-28.86,32.63-67.77,0-14.06-6-23.34T812.52,100q-14.31,0-26.73,13.55T764.58,150a244.08,244.08,0,0,0-13.05,50.45H737.22q-11.3,0-11.3,14.06,0,6,2.64,8.79t10.17,2.76h9.79q-.75,11.29-.75,22.34c0,5.4.23,10.48.66,15.27a10.06,10.06,0,0,0-4.17,3.05q-11.55,13.81-18.32,20t-11.55,6.15a6.07,6.07,0,0,1-4.89-2.26,9.11,9.11,0,0,1-1.88-6q0-11.3,5.77-40.16,3.76-19.83,3.77-25.1,0-8.78-12.3-8.79a59.14,59.14,0,0,0-11,1q-1.26-5.52-3.14-7.66t-7.4-2.13q-17.32,0-32.76,10.92a79.27,79.27,0,0,0-24.73,28.87,81.54,81.54,0,0,0-9.24,36.41c-3.34,3.64-6.25,6.58-8.7,8.77q-6.91,6.15-11.92,6.15-7.28,0-7.28-10,0-7,4.77-28.87,5.52-25.6,5.52-35.39,0-16.31-16.32-16.32-13.31,0-28.62,14.06t-27.86,44.93q.75-4.52,2.76-13.55,4.76-21.09,4.77-29.12,0-8.28-3.64-12.3t-12.42-4q-8.79,0-18.7,6.65t-19.33,20.21q-9.41,13.55-16.19,33.13a173.5,173.5,0,0,1,2.51-18.45q1.51-7.4,4-17.45,3.76-14.06,3.76-18.07,0-3.51-2-4.77t-7-1.25q-9.29,0-14.43,3.39t-7.4,10.67a203.05,203.05,0,0,0-9.2,57.4,154.73,154.73,0,0,1-12.5,13q-6.91,6.15-11.92,6.15-7.28,0-7.28-10,0-7,4.77-28.87,5.52-25.6,5.52-35.39,0-16.31-16.32-16.32-13.31,0-28.62,14.06t-27.86,44.93q.75-4.52,2.76-13.55,4.76-21.09,4.77-29.12,0-8.28-3.64-12.3t-12.42-4q-8.79,0-18.7,6.65T292.8,229.06q-9.41,13.55-16.19,33.13a173.5,173.5,0,0,1,2.51-18.45q1.51-7.4,4-17.45,3.76-14.06,3.76-18.07,0-3.51-2-4.77t-7-1.25q-9.29,0-14.43,3.39T256,216.26a203,203,0,0,0-9.2,57.28,107.6,107.6,0,0,1-13.89,13.38,29.09,29.09,0,0,1-18.07,5.9,13.6,13.6,0,0,1-10.54-4.39q-4-4.39-5.77-14.68,28.36-38.65,44.93-78.07t16.57-69.28q0-20.83-6.9-32t-19-11.17q-21.34,0-36.77,28.11t-23.34,67.27q-7.91,39.16-7.91,69.78a155.1,155.1,0,0,0,1.46,21.93q-10.61,11.47-16.39,16.6-6.65,5.9-10.92,5.9a7,7,0,0,1-6.78-4q-2-4-2-11.55,0-6.78,4.52-28.11,2-10.29,3.64-20.58a108.49,108.49,0,0,0,1.63-15.31q0-7.53-4.52-10.17t-11.55-2.64q-18.82,0-49.45,1.25,40.66-35.39,40.66-85.85,0-14.31-6.4-23.47t-18.2-9.16q-15.06,0-28.62,16.19t-24.1,43.8a383.44,383.44,0,0,0-17.32,61.5,43.78,43.78,0,0,0-5.52.25q-9.54.75-12.93,4.52T0,219.53q0,5.78,2.64,8.53t10.42,2.76a32.91,32.91,0,0,0,4.52-.25,477.89,477.89,0,0,0-4.77,65q0,51.45,7.78,77.19t25.6,25.73q20.83,0,30.75-29.12t9.91-70q0-25.35-1.25-43.68-.51-6.52-3-9.29t-7.78-2.76q-5.78,0-8.66,3.39t-2.38,10.42Q66,281,66,301.36a299.43,299.43,0,0,1-1.76,33.89q-1.76,15.31-4.52,24.1t-5.27,8.79q-5.27,0-7.91-25.48a475,475,0,0,1-2.64-48.82,423.4,423.4,0,0,1,5.52-65.51q34.39-2.26,59.49-2.26a282,282,0,0,0-5.65,28.11,167.92,167.92,0,0,0-2.13,24.1q0,19.08,7.4,30.62t23.72,11.55q12.55,0,25-8.91a116.37,116.37,0,0,0,17.49-15.47c.66,1.47,1.35,2.91,2.09,4.3q10.67,20.09,32.76,20.08a50.28,50.28,0,0,0,28.74-8.53,98.43,98.43,0,0,0,10.42-8.12,42.25,42.25,0,0,0,1.88,6.62q3.89,10,13.43,10,7.78,0,11.42-4.14t6.4-15.94a221.66,221.66,0,0,1,8.66-27.61,129.49,129.49,0,0,1,11.17-23.09q5.77-9,9.54-9,2.76,0,2.76,4,0,5-2,21.08-2.51,18.07-2.51,27.61,0,11.29,4.14,19.2t12.43,7.91q8,0,11.67-4t6.4-16.06a180.49,180.49,0,0,1,9.79-29.12A123.52,123.52,0,0,1,366,249q6-8.41,9.29-8.41,2.76,0,2.76,4,0,6-3.26,21.84-3.52,18.07-3.51,25.1,0,14.06,6.53,21.46t19.33,7.4a48.69,48.69,0,0,0,28.24-8.53,99.8,99.8,0,0,0,10.18-8.06,42.08,42.08,0,0,0,1.87,6.55q3.89,10,13.43,10,7.78,0,11.42-4.14t6.4-15.94a221.66,221.66,0,0,1,8.66-27.61,129.49,129.49,0,0,1,11.17-23.09q5.77-9,9.54-9,2.76,0,2.76,4,0,5-2,21.08-2.51,18.07-2.51,27.61,0,11.29,4.14,19.2t12.43,7.91q8,0,11.67-4t6.4-16.06a180.49,180.49,0,0,1,9.79-29.12,123.52,123.52,0,0,1,12-22.21q6-8.41,9.29-8.41,2.76,0,2.76,4,0,6-3.26,21.84Q558,284.54,558,291.57q0,14.06,6.53,21.46t19.33,7.4a48.69,48.69,0,0,0,28.24-8.53,99.72,99.72,0,0,0,10.12-8,36.82,36.82,0,0,0,3.56,5.24q9.28,11.3,24.85,11.3,19.83,0,32.88-21.08a34.37,34.37,0,0,0,10.42,15.44,23.44,23.44,0,0,0,15.19,5.65q10.79,0,22.34-8.79a126.56,126.56,0,0,0,21.84-21.59c.18-.21.34-.45.52-.67q11.55,31,45.16,31a51.71,51.71,0,0,0,29.37-8.53A99.5,99.5,0,0,0,841.9,301a45.7,45.7,0,0,0,4,5q13.3,14.44,37.4,14.43,15.81,0,27.24-6A48.88,48.88,0,0,0,929,297.59,27.81,27.81,0,0,0,933.26,282Q933.26,276.76,931.38,273.74ZM788.55,159.66q4.14-16.69,8.78-26.11t8.41-9.41q5.52,0,5.52,14.81,0,13.06-7.4,29a85.75,85.75,0,0,1-22.21,28.74A349.6,349.6,0,0,1,788.55,159.66ZM55,196.68q7.53-37.15,16.82-63.26T87.1,107.32q5.52,0,5.52,14.81a90.8,90.8,0,0,1-4.14,25.73,105,105,0,0,1-12.55,27A77.84,77.84,0,0,1,55,196.68Zm147.85-16.06q5.52-30.87,12.8-51.71t13.05-20.83q7,0,7,19.08,0,24.35-10.54,53.84a323.56,323.56,0,0,1-28.36,58.86A374,374,0,0,1,202.82,180.62Zm474.66,90.62q-2.26,10.8-7.28,17.32t-10.54,6.53a10.66,10.66,0,0,1-8.66-3.77q-3.14-3.76-3.14-11.55a68,68,0,0,1,5.27-26.61A53.28,53.28,0,0,1,667.31,233q8.91-7.65,19.45-7.91ZM863,263.7q0-15.31,6.4-26.11t15.69-10.79a9.22,9.22,0,0,1,7.15,2.89,10.92,10.92,0,0,1,2.64,7.66q0,9.29-8.53,16.32T863,264.21Z"/></g></g></svg>